HIERARCHY
ROOT Hips
{
	OFFSET 0.00000 0.00000 0.00000
	CHANNELS 6 Xposition Yposition Zposition Zrotation Yrotation Xrotation 
	JOINT LHipJoint
	{
		OFFSET 0 0 0
		CHANNELS 3 Zrotation Yrotation Xrotation
		JOINT LeftHip
		{
			OFFSET 1.17584 -1.63585 1.00361
			CHANNELS 3 Zrotation Yrotation Xrotation
			JOINT LeftKnee
			{
				OFFSET 2.23889 -6.15131 0.00000
				CHANNELS 3 Zrotation Yrotation Xrotation
				JOINT LeftAnkle
				{
					OFFSET 2.65161 -7.28525 0.00000
					CHANNELS 3 Zrotation Yrotation Xrotation
					JOINT LeftToe
					{
						OFFSET 0.24898 -0.68407 1.57235
						CHANNELS 3 Zrotation Yrotation Xrotation
						End Site
						{
							OFFSET 0.00000 -0.00000 0.85838
						}
					}
				}
			}
		}
	}
	JOINT RHipJoint
	{
		OFFSET 0 0 0
		CHANNELS 3 Zrotation Yrotation Xrotation
		JOINT RightHip
		{
			OFFSET -1.15592 -1.63585 1.00361
			CHANNELS 3 Zrotation Yrotation Xrotation
			JOINT RightKnee
			{
				OFFSET -2.34071 -6.43104 0.00000
				CHANNELS 3 Zrotation Yrotation Xrotation
				JOINT RightAnkle
				{
					OFFSET -2.59113 -7.11908 0.00000
					CHANNELS 3 Zrotation Yrotation Xrotation
					JOINT RightToe
					{
						OFFSET -0.17867 -0.49089 1.70981
						CHANNELS 3 Zrotation Yrotation Xrotation
						End Site
						{
							OFFSET -0.00000 -0.00000 0.89861
						}
					}
				}
			}
		}
	}
	JOINT lowerback
	{
		OFFSET 0 0 0
		CHANNELS 3 Zrotation Yrotation Xrotation
		JOINT Chest
		{
			OFFSET -0.02255 1.90764 -0.16605
			CHANNELS 3 Zrotation Yrotation Xrotation
			JOINT Chest2
			{
				OFFSET -0.00365 1.92150 -0.04898
				CHANNELS 3 Zrotation Yrotation Xrotation
				JOINT lowerneck
				{
					OFFSET 0 0 0
					CHANNELS 3 Zrotation Yrotation Xrotation
					JOINT Neck
					{
						OFFSET 0.00372 1.59170 0.08694
						CHANNELS 3 Zrotation Yrotation Xrotation
						JOINT Head
						{
							OFFSET 0.12558 1.58643 -0.08078
							CHANNELS 3 Zrotation Yrotation Xrotation
							End Site
							{
								OFFSET 0.04211 1.60835 -0.03803
							}
						}
					}
				}
				JOINT LeftCollar
				{
					OFFSET 0 0 0
					CHANNELS 3 Zrotation Yrotation Xrotation
					JOINT LeftShoulder
					{
						OFFSET 3.69324 0.96316 0.19077
CHANNELS 3 Zrotation Xrotation Yrotation
						JOINT LeftElbow
						{
OFFSET 0 -4.877960 -0.000000
CHANNELS 3 Zrotation Xrotation Yrotation
							JOINT LeftWrist
							{
OFFSET 0 -3.231690 0.000000
CHANNELS 3 Zrotation Xrotation Yrotation
								JOINT lhand
								{
									OFFSET 0 0 0
CHANNELS 3 Zrotation Xrotation Yrotation
									JOINT LFingers
									{
OFFSET 0 -0.731320 0.000000
CHANNELS 3 Zrotation Xrotation Yrotation
										End Site
										{
OFFSET 0 -0.589610 0.000000
										}
									}
								}
								JOINT LThumb
								{
OFFSET 0 0.000000 0.000000
CHANNELS 3 Zrotation Xrotation Yrotation
									End Site
									{
OFFSET 0 -0.598610 0.598610
									}
								}
							}
						}
					}
				}
				JOINT RightCollar
				{
					OFFSET 0 0 0
					CHANNELS 3 Zrotation Yrotation Xrotation
					JOINT RightShoulder
					{
						OFFSET -3.66103 0.75145 0.08281
CHANNELS 3 Zrotation Xrotation Yrotation
						JOINT RightElbow
						{
OFFSET 0 -4.914300 0.000000
CHANNELS 3 Zrotation Xrotation Yrotation
							JOINT RightWrist
							{
OFFSET 0 -3.290930 0.000000
CHANNELS 3 Zrotation Xrotation Yrotation
								JOINT rhand
								{
									OFFSET 0 0 0
CHANNELS 3 Zrotation Xrotation Yrotation
									JOINT RFingers
									{
OFFSET 0 -0.545120 0.000000
CHANNELS 3 Zrotation Xrotation Yrotation
										End Site
										{
OFFSET 0 -0.439490 0.000000
										}
									}
								}
								JOINT RThumb
								{
OFFSET 0 0.000000 0.000000
CHANNELS 3 Zrotation Xrotation Yrotation
									End Site
									{
OFFSET 0 -0.446200 0.446200
									}
								}
							}
						}
					}
				}
			}
		}
	}
}
MOTION
Frames: 8
Frame Time: 0.008333333333333333
-2.731000 16.416300 0.124600 53.722200 -86.912000 -52.524100 0.000000 0.000000 0.000000 -13.057100 -4.221500 -12.386100 2.967600 10.642300 31.082900 1.680600 11.141300 -30.698100 3.372500 -11.274900 -33.212600 0.000000 0.000000 0.000000 8.772600 10.127300 -14.491000 -5.165800 -13.568200 41.534300 -2.938700 -3.659800 -33.842400 -0.076400 -1.783000 4.906300 1.160400 2.460600 -8.830700 -5.361600 3.537600 4.337100 -5.835200 1.962900 10.067200 6.703000 8.287700 -5.154900 -8.579000 -56.977000 15.457200 -175.190000 -38.450200 29.269700 0.000000 -0.000000 0.000000 14.405200 -11.607200 -42.888700 24.153200 -35.325800 7.794900 32.967200 -14.980000 29.374400 0.000000 0.000000 0.000000 -7.125000 0.000000 0.000000 1.192300 -3.871800 1.270400 0.000000 -0.000000 0.000000 3.557800 -6.974000 27.929900 -25.558000 -36.768900 -8.621700 -28.808600 22.778200 32.839100 0.000000 0.000000 0.000000 7.125000 0.000000 -0.000000 4.559700 66.301500 -2.344600
-2.728631 16.376303 0.126258 53.025640 -86.915695 -51.840248 0.000000 0.000000 0.000000 -12.981503 -4.641543 -12.865588 3.171379 10.967196 32.169732 1.788892 10.973094 -31.251277 3.502115 -11.466593 -33.870290 0.000000 0.000000 0.000000 8.804448 9.425233 -14.617802 -5.032426 -13.420112 40.962355 -2.685677 -4.922230 -32.989360 -0.003799 -0.136756 0.375758 1.492619 2.617397 -8.589040 -5.601770 3.715760 4.227728 -6.263523 2.076244 9.869693 6.671379 8.950280 -4.361848 -6.685453 -54.872447 13.796384 -176.654886 -35.438216 28.886274 0.000000 0.000000 0.000000 14.804840 -11.567571 -43.376076 24.166535 -35.339883 7.802671 32.703971 -15.082337 29.369108 0.000000 0.000000 0.000000 -7.125000 0.000000 0.000000 1.043715 -3.788970 1.110535 0.000000 0.000000 0.000000 4.068367 -6.714079 27.482057 -25.569895 -36.780874 -8.628877 -29.107720 22.868829 32.246089 0.000000 0.000000 0.000000 7.125000 0.000000 0.000000 3.781097 65.773898 -1.897821
-2.730889 16.338368 0.126200 53.912302 -86.937703 -52.697576 0.000000 0.000000 0.000000 -12.922063 -4.812695 -13.384697 3.356233 11.250384 33.129152 1.887302 10.782697 -31.717646 3.452798 -11.394231 -33.621195 0.000000 0.000000 0.000000 8.825758 8.900089 -14.755621 -4.911916 -13.283781 40.440491 -2.406059 -6.338597 -32.080109 -0.076099 1.741499 -4.792813 1.416570 2.599728 -8.637862 -5.559549 3.699912 4.248976 -6.175030 2.062784 9.910820 6.275386 9.764890 -3.713066 -4.964086 -51.968893 12.105749 -177.862225 -32.146679 28.232819 0.000000 0.000000 0.000000 14.670690 -11.636950 -43.234260 24.120614 -35.291567 7.776178 32.764742 -15.188520 29.612122 0.000000 0.000000 0.000000 -7.125000 0.000000 0.000000 1.028339 -4.069855 1.098918 0.000000 0.000000 0.000000 3.973337 -6.774797 27.584489 -25.506044 -36.716760 -8.590591 -29.039237 22.759130 32.254649 0.000000 0.000000 0.000000 7.125000 0.000000 0.000000 3.876029 65.762778 -1.944505
-2.734799 16.315824 0.125621 55.026653 -86.910893 -53.775773 0.000000 0.000000 0.000000 -12.943738 -4.933780 -13.696276 3.471913 11.422388 33.718001 1.955109 10.632066 -32.021239 3.440658 -11.376269 -33.559754 0.000000 0.000000 0.000000 8.784023 8.633693 -14.809577 -4.836775 -13.197603 40.112621 -2.239639 -7.201229 -31.563546 -0.201536 2.886838 -7.964132 1.307890 2.577340 -8.699770 -5.551539 3.683258 4.249568 -6.105303 2.047072 9.937320 6.029267 10.247347 -3.321951 -4.103642 -50.208615 11.256647 -178.473968 -30.140137 27.782059 0.000000 0.000000 0.000000 14.610565 -11.671695 -43.124818 24.079164 -35.247886 7.752183 32.779281 -15.234385 29.711467 0.000000 0.000000 0.000000 -7.125000 0.000000 0.000000 1.016160 -4.181593 1.087697 0.000000 0.000000 0.000000 3.910082 -6.789123 27.690769 -25.439802 -36.650176 -8.551087 -29.004120 22.713774 32.248543 0.000000 0.000000 0.000000 7.125000 0.000000 0.000000 3.917966 65.746344 -1.964075
-2.738646 16.310079 0.123843 55.469538 -86.947561 -54.189429 0.000000 0.000000 0.000000 -12.904914 -4.965317 -13.816261 3.515944 11.486788 33.939759 1.986404 10.542957 -32.146750 3.444461 -11.381991 -33.579209 0.000000 0.000000 0.000000 8.825104 8.685337 -14.771148 -4.808742 -13.165048 39.989575 -2.208135 -7.409013 -31.492533 -0.229614 3.084074 -8.512922 1.384273 2.636751 -8.682476 -5.628701 3.757257 4.208322 -6.221244 2.089759 9.903282 6.082718 10.294898 -3.243469 -3.928574 -50.009665 11.126036 -178.609366 -29.772827 27.711261 0.000000 0.000000 0.000000 14.760881 -11.675034 -43.279031 24.091283 -35.260640 7.759193 32.774973 -15.245620 29.656162 0.000000 0.000000 0.000000 -7.125000 0.000000 0.000000 1.025093 -4.120486 1.096309 0.000000 0.000000 0.000000 4.055192 -6.721693 27.593663 -25.403938 -36.614038 -8.529704 -29.037967 22.737948 32.263544 0.000000 0.000000 0.000000 7.125000 0.000000 0.000000 3.883199 65.771770 -1.948925
-2.741352 16.309195 0.123210 55.023223 -87.046049 -53.740309 0.000000 0.000000 0.000000 -12.791197 -4.927063 -13.858593 3.531200 11.509035 34.016401 1.992840 10.531976 -32.177456 3.455886 -11.398829 -33.637210 0.000000 0.000000 0.000000 8.946670 8.749777 -14.723896 -4.799103 -13.153877 39.947441 -2.208753 -7.426700 -31.506334 -0.228741 3.078374 -8.497150 1.594597 2.724006 -8.577706 -5.709975 3.851454 4.156631 -6.417253 2.150918 9.819695 6.217232 10.220355 -3.262735 -3.908226 -50.202277 11.153872 -178.620518 -29.832759 27.733323 0.000000 0.000000 0.000000 14.954662 -11.668905 -43.558503 24.131426 -35.302926 7.782316 32.808155 -15.296758 29.569698 0.000000 0.000000 0.000000 -7.125000 0.000000 0.000000 1.061711 -4.036778 1.134004 0.000000 0.000000 0.000000 4.258291 -6.628163 27.414054 -25.399116 -36.609121 -8.526810 -29.033598 22.699691 32.225232 0.000000 0.000000 0.000000 7.125000 0.000000 0.000000 3.864743 65.730690 -1.935923
-2.743841 16.309379 0.123879 54.787892 -87.111432 -53.508054 0.000000 0.000000 0.000000 -12.722921 -4.878304 -13.889341 3.543563 11.526940 34.078310 2.001263 10.519513 -32.219341 3.442595 -11.379233 -33.569789 0.000000 0.000000 0.000000 9.012883 8.711549 -14.708960 -4.790830 -13.144299 39.911080 -2.206721 -7.393830 -31.475004 -0.230395 3.089271 -8.527491 1.706431 2.749749 -8.483674 -5.726910 3.871433 4.119206 -6.498781 2.166949 9.735332 6.241846 10.217988 -3.244122 -3.891209 -50.222040 11.153168 -178.640786 -29.795889 27.734291 0.000000 0.000000 0.000000 15.019016 -11.669283 -43.679098 24.115999 -35.286710 7.773469 32.903281 -15.370461 29.606676 0.000000 0.000000 0.000000 -7.125000 0.000000 0.000000 1.108140 -4.104681 1.184838 0.000000 0.000000 0.000000 4.318645 -6.570190 27.385505 -25.394983 -36.604983 -8.524350 -28.866117 22.500309 32.146304 0.000000 0.000000 0.000000 7.125000 0.000000 0.000000 4.033562 65.600281 -2.008476
-2.746567 16.310142 0.123764 55.009831 -87.166821 -53.719822 0.000000 0.000000 0.000000 -12.675524 -4.841397 -13.923311 3.554279 11.542376 34.131694 2.014165 10.498382 -32.281748 3.420217 -11.346044 -33.456103 0.000000 0.000000 0.000000 9.055654 8.698060 -14.705186 -4.782652 -13.134821 39.875205 -2.208387 -7.340332 -31.454406 -0.225816 3.058930 -8.442971 1.696178 2.719850 -8.406740 -5.677227 3.826492 4.072807 -6.446910 2.140098 9.626861 6.165690 10.287085 -3.159082 -3.889587 -50.054177 11.136700 -178.638165 -29.642331 27.697123 0.000000 0.000000 0.000000 14.969934 -11.622455 -43.627406 24.071707 -35.239987 7.747892 32.923701 -15.384377 29.738807 0.000000 0.000000 0.000000 -7.125000 0.000000 0.000000 1.092312 -4.253706 1.170545 0.000000 0.000000 0.000000 4.249484 -6.516341 27.512284 -25.388521 -36.598421 -8.520472 -28.690958 22.290271 32.116996 0.000000 0.000000 0.000000 7.125000 0.000000 0.000000 4.242476 65.519260 -2.104760
